PathFileType	4	(X/Y/Z)	/Users/niels/Desktop/University/Third Semester/Perception and Action/Exam/Gymnastics Motion Tracking/Code for Gym Tracking/Scripts/Analyzed Data/Start Salto/st_salto_bad_id11_2_Sports2D/st_salto_bad_id11_2_Sports2D_px_person00.trc
DataRate	CameraRate	NumFrames	NumMarkers	Units	OrigDataRate	OrigDataStartFrame	OrigNumFrames
29.83695652173913	29.83695652173913	11	22	m	29.83695652173913	92	184
Frame#	Time	Hip			RHip			RKnee			RAnkle			RBigToe			RSmallToe			RHeel			LHip			LKnee			LAnkle			LBigToe			LSmallToe			LHeel			Neck			Head			Nose			RShoulder			RElbow			RWrist			LShoulder			LElbow			LWrist		
		X1	Y1	Z1	X2	Y2	Z2	X3	Y3	Z3	X4	Y4	Z4	X5	Y5	Z5	X6	Y6	Z6	X7	Y7	Z7	X8	Y8	Z8	X9	Y9	Z9	X10	Y10	Z10	X11	Y11	Z11	X12	Y12	Z12	X13	Y13	Z13	X14	Y14	Z14	X15	Y15	Z15	X16	Y16	Z16	X17	Y17	Z17	X18	Y18	Z18	X19	Y19	Z19	X20	Y20	Z20	X21	Y21	Z21	X22	Y22	Z22
92	3.0834244080145723	0.5398490546961696	-0.4737968723616478	0.0	0.5437999814533444	-0.4793630185841602	0.0	0.5186637567219244	-0.621482824302604	0.0	0.47461193627225784	-0.7465693061074401	0.0	0.5024460961549344	-0.8029470428524076	0.0	0.4934654096689659	-0.801290191936211	0.0	0.4618440433353732	-0.7554998405067161	0.0	0.5384508480991771	-0.4735771124602125	0.0	0.5126634979747613	-0.6182579014277277	0.0	0.4746259633875792	-0.7367930575348526	0.0	0.5051705946876857	-0.785479455836221	0.0	0.5023185513101383	-0.7776703307027938	0.0	0.4586402942648657	-0.7428764082016723	0.0	0.7020251943879645	-0.3936362047182254	0.0	0.782556145236891	-0.36569139361208913	0.0	0.757338085238369	-0.40123949946539433	0.0	0.7050484012841216	-0.40886737359737624	0.0	0.7667123144188898	-0.47916319177740446	0.0	0.8346413621326435	-0.5309392177267124	0.0	0.6905622341297375	-0.39161414156791957	0.0	0.7561014867619312	-0.458876097541944	0.0	0.8147056072335794	-0.502056885655762	0.0
93	3.1169398907103827	0.5481892382262074	-0.46467683851886893	0.0	0.5523967356136447	-0.47017413856619084	0.0	0.5254724659027354	-0.6120647055632196	0.0	0.47607413517949865	-0.7354997443379807	0.0	0.5014876672396917	-0.794153326916982	0.0	0.4918207362373526	-0.7916078232456557	0.0	0.4633455933137875	-0.7421739061449679	0.0	0.5473551681513376	-0.4639447852720951	0.0	0.5195684854384718	-0.6082424442647545	0.0	0.4764536238864709	-0.7254292231856462	0.0	0.5038461489374113	-0.7765874310704601	0.0	0.5022801346962336	-0.7688436006279652	0.0	0.4601807793640282	-0.7308500827017115	0.0	0.7152545073609685	-0.39397400837678587	0.0	0.7965987792315267	-0.37136325290844	0.0	0.7696819526800319	-0.4053931253241309	0.0	0.7169054485593032	-0.41074750293211054	0.0	0.7728591905772311	-0.48476271926800046	0.0	0.8377759569939671	-0.5410555089811376	0.0	0.7032164455596965	-0.3894284451353495	0.0	0.7607286114834806	-0.4546500981408025	0.0	0.81222395743419	-0.4981105011016824	0.0
94	3.1504553734061935	0.5564280018813633	-0.455756558497088	0.0	0.5609532250934716	-0.4610010796498434	0.0	0.5331304534684445	-0.6028363702467915	0.0	0.47691308276448235	-0.7239468971278232	0.0	0.5004073591828527	-0.7849580614324158	0.0	0.49001522461774333	-0.78144024950788	0.0	0.4638300044094033	-0.7286183822578458	0.0	0.5565054602860858	-0.454308998073858	0.0	0.5274093005409863	-0.5983600830920128	0.0	0.4776689715216444	-0.7142304229051609	0.0	0.5025216515172601	-0.7675894633936744	0.0	0.502136777623464	-0.7599987180742112	0.0	0.46072055701325126	-0.7191570075139142	0.0	0.7279829478051736	-0.39519870188418177	0.0	0.81019852532481	-0.3776909436206345	0.0	0.7813374435703769	-0.4102517658693653	0.0	0.7285924789125144	-0.4130370250007773	0.0	0.7785726323193288	-0.4905358970902411	0.0	0.8396778519529591	-0.5512672578954176	0.0	0.7157848908894279	-0.38784262150698806	0.0	0.7648970736295359	-0.449719511534378	0.0	0.8089654416642748	-0.493324349287677	0.0
95	3.183970856102004	0.564858650902557	-0.4469816274284171	0.0	0.5695767274346489	-0.4518689436840705	0.0	0.5415458066306122	-0.5937949974328551	0.0	0.47732483179681795	-0.7118239935508338	0.0	0.4990431192075884	-0.7752244317234895	0.0	0.4879845366212853	-0.77067020055137	0.0	0.4634734320037093	-0.7148885486612272	0.0	0.5660377913409304	-0.44472521545870025	0.0	0.5360116241035883	-0.58866012567761	0.0	0.47845095755301753	-0.702871843616939	0.0	0.5007557603172075	-0.7582533738795227	0.0	0.501379379237614	-0.7507121078713385	0.0	0.4604855821275789	-0.7074320908045729	0.0	0.7404076662157916	-0.3973293770982143	0.0	0.8237089167426977	-0.38460679927445596	0.0	0.7926758073886678	-0.4158572307022836	0.0	0.740222416600534	-0.41560465892397797	0.0	0.7836969826224627	-0.4962483111584349	0.0	0.8401473442178858	-0.561108664153923	0.0	0.7285255058501153	-0.38736118684492776	0.0	0.7698800796574943	-0.4470651054743352	0.0	0.8073589382731781	-0.49226289041732335	0.0
96	3.2174863387978148	0.5737243896236268	-0.438443187164234	0.0	0.5783142651811595	-0.44301897199253254	0.0	0.5504177593616943	-0.5850157093285094	0.0	0.47757503682166547	-0.6991715781627618	0.0	0.49719676159246085	-0.7646958383158939	0.0	0.48567155111321636	-0.7590564478026766	0.0	0.46253608859565193	-0.7010002913918699	0.0	0.5759449282132579	-0.43544726442458986	0.0	0.5449941694321213	-0.5792827599587027	0.0	0.4790207234974383	-0.6910294651595502	0.0	0.49819497258159967	-0.7483755644821812	0.0	0.4996493145903773	-0.7406567988776422	0.0	0.4598249428853453	-0.6952915879936832	0.0	0.7527265878467846	-0.4001929397733487	0.0	0.8371109663660327	-0.3921338229641555	0.0	0.803789338922192	-0.422063214070446	0.0	0.7516751500263275	-0.4183526048183492	0.0	0.787972447659532	-0.5015559375182616	0.0	0.8392774565638557	-0.5698366182425385	0.0	0.741560623417234	-0.38825259726144556	0.0	0.776544722600935	-0.44800064382108284	0.0	0.8091700321509374	-0.4967931529931267	0.0
97	3.251001821493625	0.5830854984376239	-0.4303831910068642	0.0	0.5871292560186213	-0.4348596282776523	0.0	0.5593618312029056	-0.5766953765346012	0.0	0.47791081955040676	-0.6861494431916825	0.0	0.49481867155127623	-0.7532684799716008	0.0	0.4831688685089934	-0.7464987017924816	0.0	0.4613466641548819	-0.6869770942857786	0.0	0.5860432780936661	-0.4268091259419689	0.0	0.5539724826610068	-0.5704664188690068	0.0	0.47961798507053705	-0.6785202327553176	0.0	0.4949912762607381	-0.7377461291177746	0.0	0.4971460488693775	-0.7296323234293977	0.0	0.4591657292776201	-0.6825017470175477	0.0	0.7650098372442864	-0.4035984931656969	0.0	0.8499895365702937	-0.4001792197040953	0.0	0.8144619474721249	-0.42855605244005535	0.0	0.7626579879865978	-0.42133035395335844	0.0	0.791211761064326	-0.5061778391331109	0.0	0.8374404473246961	-0.5767529956461789	0.0	0.7547398928711542	-0.3904944539887951	0.0	0.7843163505085179	-0.45044717226932796	0.0	0.8137878124173562	-0.5033334269424278	0.0
98	3.2845173041894355	0.5927937028579627	-0.42302859642942314	0.0	0.5959461082866182	-0.4276722650438833	0.0	0.5681201972287622	-0.569067117279415	0.0	0.47849521593029765	-0.6729334586649579	0.0	0.4920363704152618	-0.7410287418888287	0.0	0.4806768712293257	-0.7331012976338562	0.0	0.4602794927078415	-0.6728502847031013	0.0	0.5960970771277363	-0.4190157713358975	0.0	0.5627313179124201	-0.5624210887254681	0.0	0.4804626054117029	-0.6652783765145273	0.0	0.4917310764543492	-0.7260045036981145	0.0	0.4945291043539595	-0.7173913662480161	0.0	0.45897537586532194	-0.6689262768455368	0.0	0.7770634750257488	-0.4074338110508369	0.0	0.8618120098005798	-0.40847247326585745	0.0	0.8244122724312849	-0.4350307302426634	0.0	0.7727960015646496	-0.4245920034178979	0.0	0.7933733159445574	-0.5099790926444314	0.0	0.835169285545518	-0.5815450033305847	0.0	0.7675905837894781	-0.3938952879233315	0.0	0.7916478738923822	-0.4531107199695502	0.0	0.819184446092394	-0.508833650999061	0.0
99	3.3180327868852464	0.6026125601453042	-0.4164764844394515	0.0	0.6047106463525984	-0.42146526411474844	0.0	0.5766085017274186	-0.5622517094818711	0.0	0.47940457325788277	-0.6596270989391086	0.0	0.48903610137317827	-0.7280863087265111	0.0	0.47834472163204683	-0.7190604339636846	0.0	0.4597171054698447	-0.6586540299867738	0.0	0.6059612505101931	-0.4121133328586722	0.0	0.5712224479247291	-0.555189057770827	0.0	0.48174175687635085	-0.6512856666349861	0.0	0.48902378780844646	-0.7126321023012381	0.0	0.49247995887956114	-0.7035700299934504	0.0	0.4597703576174578	-0.654384119943202	0.0	0.7884660591484024	-0.4116315215295004	0.0	0.8721984050134757	-0.41675864591369555	0.0	0.833404692810643	-0.44133001828679547	0.0	0.7817880285188751	-0.4279833240652167	0.0	0.7945240215397504	-0.5129619971383867	0.0	0.8329737595164277	-0.5843734099932305	0.0	0.7794572135205338	-0.3981963364760775	0.0	0.7970880523152277	-0.458694369518923	0.0	0.8236515005010375	-0.5160609000196847	0.0
100	3.351548269581057	0.612475021844635	-0.4106253814169206	0.0	0.6135172437446308	-0.4160302978818025	0.0	0.5848638765429873	-0.5561326507195262	0.0	0.48068897152331513	-0.6461347242961318	0.0	0.48597562712278375	-0.7144109069643101	0.0	0.47619569943144885	-0.7044869590050233	0.0	0.46001539817576503	-0.6443189850202407	0.0	0.6157085564919554	-0.4060437294055227	0.0	0.579550372362412	-0.5485570598456282	0.0	0.4836779028945065	-0.6363959820591508	0.0	0.4872500121738103	-0.6970485031182981	0.0	0.4913942545978972	-0.6877524286467338	0.0	0.46212434166768995	-0.6384847968146596	0.0	0.7989612786353073	-0.41615161821322016	0.0	0.8811576475051105	-0.42520698794313083	0.0	0.841292867506544	-0.4475406877318311	0.0	0.7897074354569058	-0.43123502966456656	0.0	0.7947994368209896	-0.5152242024855609	0.0	0.8311696215739532	-0.5857803835935055	0.0	0.7899618308760653	-0.40310346566456706	0.0	0.7998702367399975	-0.4695061923754018	0.0	0.826339781821747	-0.5283794121166322	0.0
101	3.385063752276867	0.6225785277509884	-0.4051818531238626	0.0	0.6226265919778723	-0.41104452261664204	0.0	0.5930032874664806	-0.5504212240584477	0.0	0.48242150112507615	-0.6321536839341613	0.0	0.48298690500019426	-0.6998199077998055	0.0	0.47418647306840195	-0.6893429836732627	0.0	0.4614234432239771	-0.6296313983433576	0.0	0.6256019632480775	-0.40066616146576994	0.0	0.5879641612369019	-0.5421377144277996	0.0	0.48656121998410057	-0.6201990069368096	0.0	0.4865328280429138	-0.678802083470503	0.0	0.4913627083493824	-0.6695978928960744	0.0	0.466517109135749	-0.6206538262444824	0.0	0.8087321960447005	-0.4209822561867502	0.0	0.8891535621558645	-0.4343833737661723	0.0	0.8481218789654454	-0.45393622332030525	0.0	0.7970654730052212	-0.43421521964087184	0.0	0.7944117182949079	-0.516906686477171	0.0	0.8298497863472892	-0.5864847192689158	0.0	0.7993504184410365	-0.40835008991523924	0.0	0.8001417915994476	-0.48314402318014665	0.0	0.8272192955083029	-0.5435649557194586	0.0
102	3.418579234972678	0.6331432801801528	-0.3998607313035483	0.0	0.6322377653638218	-0.40624332014963177	0.0	0.6010956126578216	-0.5449103884192629	0.0	0.4846774139420008	-0.6175002585327289	0.0	0.48022494199055843	-0.6842650522113677	0.0	0.47233790138471576	-0.6736823554233821	0.0	0.4640048461542276	-0.6144686395090264	0.0	0.635806366000642	-0.3958345106421	0.0	0.5966611566701002	-0.5356570530807347	0.0	0.49061617611957603	-0.6023477261513555	0.0	0.4867712278522508	-0.6580423369151482	0.0	0.49229684571637544	-0.6492388508879973	0.0	0.47304139925154276	-0.6006523442451225	0.0	0.8181108469301639	-0.4260621246281342	0.0	0.8967954784548672	-0.444539505648631	0.0	0.8541142537632378	-0.4606917843716752	0.0	0.8044396157240802	-0.43698404438750654	0.0	0.793689099684545	-0.5181554861136813	0.0	0.8289801296453896	-0.5871104525149944	0.0	0.8082115808016105	-0.4137785291401015	0.0	0.7988587916866512	-0.49540746459670076	0.0	0.826871158430394	-0.5568554991505196	0.0
